ffmpeg version git-2026-04-19-de18feb Copyright (c) 2000-2026 the FFmpeg developers
  built with gcc 9 (Ubuntu 9.4.0-1ubuntu1~20.04.2)
  configuration: --enable-shared --enable-gpl --enable-libx264
  libavutil      60. 30.100 / 60. 30.100
  libavcodec     62. 30.100 / 62. 30.100
  libavformat    62. 13.102 / 62. 13.102
  libavdevice    62.  4.100 / 62.  4.100
  libavfilter    11. 15.101 / 11. 15.101
  libswscale      9.  7.100 /  9.  7.100
  libswresample   6.  4.100 /  6.  4.100
[in#0/x11grab @ 0x558d76e0ec40] Stream #0: not enough frames to estimate rate; consider increasing probesize
Input #0, x11grab, from ':0.0+0,0':
  Duration: N/A, start: 1777443229.048320, bitrate: 3678192 kb/s
  Stream #0:0: Video: rawvideo (BGR[0] / 0x524742), bgr0, 2870x1602, 3678192 kb/s, 25 fps, 1000k tbr, 1000k tbn, start 1777443229.048320
Stream mapping:
  Stream #0:0 -> #0:0 (rawvideo (native) -> h264 (libx264))
[libx264 @ 0x558d76e1cf00] using cpu capabilities: MMX2 SSE2Fast SSSE3 SSE4.2 AVX FMA3 BMI2 AVX2
[libx264 @ 0x558d76e1cf00] profile High, level 5.0
[libx264 @ 0x558d76e1cf00] 264 - core 155 r2917 0a84d98 - H.264/MPEG-4 AVC codec - Copyleft 2003-2018 - http://www.videolan.org/x264.html - options: cabac=1 ref=1 deblock=1:0:0 analyse=0x3:0x113 me=hex subme=2 psy=1 psy_rd=1.00:0.00 mixed_ref=0 me_range=16 chroma_me=1 trellis=0 8x8dct=1 cqm=0 deadzone=21,11 fast_pskip=1 chroma_qp_offset=0 threads=6 lookahead_threads=2 sliced_threads=0 nr=0 decimate=1 interlaced=0 bluray_compat=0 constrained_intra=0 bframes=3 b_pyramid=2 b_adapt=1 b_bias=0 direct=1 weightb=1 open_gop=0 weightp=1 keyint=250 keyint_min=25 scenecut=40 intra_refresh=0 rc_lookahead=10 rc=crf mbtree=1 crf=23.0 qcomp=0.60 qpmin=0 qpmax=69 qpstep=4 ip_ratio=1.40 aq=1:1.00
Output #0, matroska, to '/home/lmy/catkin_ws/recordings_tmp/exp_15a_segment/screen.mkv':
  Metadata:
    encoder         : Lavf62.13.102
  Stream #0:0: Video: h264 (H264 / 0x34363248), yuv420p(tv, progressive), 2870x1602, q=2-31, 25 fps, 1k tbn
    Metadata:
      encoder         : Lavc62.30.100 libx264
    Side data:
      CPB properties: bitrate max/min/avg: 0/0/0 buffer size: 0 vbv_delay: N/A
frame=    0 fps=0.0 q=0.0 size=       0KiB time=N/A bitrate=N/A speed=N/A elapsed=0:00:00.50    frame=    6 fps=6.0 q=28.0 size=       1KiB time=00:00:00.16 bitrate=  29.7kbits/s speed=0.159x elapsed=0:00:01.00    frame=   18 fps= 12 q=28.0 size=       1KiB time=00:00:00.64 bitrate=   7.4kbits/s speed=0.425x elapsed=0:00:01.50    frame=   31 fps= 15 q=28.0 size=       1KiB time=00:00:01.16 bitrate=   4.1kbits/s speed=0.579x elapsed=0:00:02.00    frame=   43 fps= 17 q=28.0 size=       1KiB time=00:00:01.64 bitrate=   2.9kbits/s speed=0.655x elapsed=0:00:02.50    frame=   55 fps= 18 q=28.0 size=       1KiB time=00:00:02.12 bitrate=   2.2kbits/s speed=0.705x elapsed=0:00:03.00    frame=   68 fps= 19 q=28.0 size=       1KiB time=00:00:02.64 bitrate=   1.8kbits/s speed=0.753x elapsed=0:00:03.50    frame=   81 fps= 20 q=28.0 size=       1KiB time=00:00:03.16 bitrate=   1.5kbits/s speed=0.789x elapsed=0:00:04.00    frame=   93 fps= 21 q=28.0 size=       1KiB time=00:00:03.64 bitrate=   1.3kbits/s speed=0.807x elapsed=0:00:04.50    frame=  106 fps= 21 q=28.0 size=       1KiB time=00:00:04.16 bitrate=   1.1kbits/s speed=0.831x elapsed=0:00:05.00    frame=  118 fps= 21 q=28.0 size=       1KiB time=00:00:04.64 bitrate=   1.0kbits/s speed=0.842x elapsed=0:00:05.50    frame=  131 fps= 22 q=28.0 size=     166KiB time=00:00:05.16 bitrate= 264.2kbits/s speed=0.859x elapsed=0:00:06.00    frame=  143 fps= 22 q=28.0 size=     166KiB time=00:00:05.64 bitrate= 241.7kbits/s speed=0.866x elapsed=0:00:06.50    frame=  156 fps= 22 q=28.0 size=     166KiB time=00:00:06.16 bitrate= 221.3kbits/s speed=0.879x elapsed=0:00:07.00    frame=  168 fps= 22 q=28.0 size=     166KiB time=00:00:06.64 bitrate= 205.3kbits/s speed=0.884x elapsed=0:00:07.50    frame=  181 fps= 23 q=28.0 size=     166KiB time=00:00:07.16 bitrate= 190.4kbits/s speed=0.894x elapsed=0:00:08.01    frame=  193 fps= 23 q=28.0 size=     166KiB time=00:00:07.68 bitrate= 177.5kbits/s speed=0.902x elapsed=0:00:08.51    frame=  206 fps= 23 q=28.0 size=     166KiB time=00:00:08.16 bitrate= 167.1kbits/s speed=0.906x elapsed=0:00:09.01    frame=  218 fps= 23 q=28.0 size=     166KiB time=00:00:08.64 bitrate= 157.8kbits/s speed=0.908x elapsed=0:00:09.51    frame=  231 fps= 23 q=28.0 size=     166KiB time=00:00:09.16 bitrate= 148.8kbits/s speed=0.915x elapsed=0:00:10.01    frame=  243 fps= 23 q=28.0 size=     166KiB time=00:00:09.64 bitrate= 141.4kbits/s speed=0.917x elapsed=0:00:10.51    frame=  256 fps= 23 q=28.0 size=     256KiB time=00:00:10.16 bitrate= 206.4kbits/s speed=0.923x elapsed=0:00:11.01    frame=  269 fps= 23 q=28.0 size=     256KiB time=00:00:10.68 bitrate= 196.4kbits/s speed=0.928x elapsed=0:00:11.51    frame=  281 fps= 23 q=28.0 size=     256KiB time=00:00:11.16 bitrate= 187.9kbits/s speed=0.929x elapsed=0:00:12.01    frame=  294 fps= 23 q=28.0 size=     256KiB time=00:00:11.68 bitrate= 179.6kbits/s speed=0.933x elapsed=0:00:12.51    frame=  306 fps= 24 q=28.0 size=     256KiB time=00:00:12.16 bitrate= 172.5kbits/s speed=0.934x elapsed=0:00:13.01    frame=  317 fps= 23 q=28.0 size=     256KiB time=00:00:12.60 bitrate= 166.4kbits/s speed=0.932x elapsed=0:00:13.51    frame=  331 fps= 24 q=28.0 size=     256KiB time=00:00:13.16 bitrate= 159.4kbits/s speed=0.939x elapsed=0:00:14.01    frame=  344 fps= 24 q=28.0 size=     256KiB time=00:00:13.68 bitrate= 153.3kbits/s speed=0.942x elapsed=0:00:14.51    frame=  356 fps= 24 q=28.0 size=     256KiB time=00:00:14.16 bitrate= 148.1kbits/s speed=0.943x elapsed=0:00:15.01    frame=  368 fps= 24 q=28.0 size=     256KiB time=00:00:14.64 bitrate= 143.2kbits/s speed=0.943x elapsed=0:00:15.51    frame=  381 fps= 24 q=28.0 size=     256KiB time=00:00:15.16 bitrate= 138.3kbits/s speed=0.946x elapsed=0:00:16.01    frame=  394 fps= 24 q=28.0 size=     256KiB time=00:00:15.68 bitrate= 133.7kbits/s speed=0.949x elapsed=0:00:16.51    frame=  406 fps= 24 q=28.0 size=     256KiB time=00:00:16.16 bitrate= 129.8kbits/s speed=0.95x elapsed=0:00:17.01    frame=  419 fps= 24 q=28.0 size=     256KiB time=00:00:16.68 bitrate= 125.7kbits/s speed=0.952x elapsed=0:00:17.51    frame=  431 fps= 24 q=28.0 size=     256KiB time=00:00:17.16 bitrate= 122.2kbits/s speed=0.952x elapsed=0:00:18.01    frame=  444 fps= 24 q=28.0 size=     256KiB time=00:00:17.68 bitrate= 118.6kbits/s speed=0.955x elapsed=0:00:18.51    frame=  456 fps= 24 q=28.0 size=     256KiB time=00:00:18.16 bitrate= 115.5kbits/s speed=0.955x elapsed=0:00:19.01    frame=  469 fps= 24 q=28.0 size=     256KiB time=00:00:18.68 bitrate= 112.3kbits/s speed=0.957x elapsed=0:00:19.51    frame=  481 fps= 24 q=28.0 size=     256KiB time=00:00:19.16 bitrate= 109.5kbits/s speed=0.957x elapsed=0:00:20.02    frame=  494 fps= 24 q=28.0 size=     256KiB time=00:00:19.68 bitrate= 106.6kbits/s speed=0.959x elapsed=0:00:20.52    frame=  506 fps= 24 q=28.0 size=     512KiB time=00:00:20.16 bitrate= 208.1kbits/s speed=0.959x elapsed=0:00:21.02    frame=  519 fps= 24 q=28.0 size=     512KiB time=00:00:20.68 bitrate= 202.8kbits/s speed=0.961x elapsed=0:00:21.52    frame=  532 fps= 24 q=28.0 size=     512KiB time=00:00:21.20 bitrate= 197.8kbits/s speed=0.962x elapsed=0:00:22.02    frame=  544 fps= 24 q=28.0 size=     512KiB time=00:00:21.68 bitrate= 193.5kbits/s speed=0.962x elapsed=0:00:22.52    frame=  556 fps= 24 q=28.0 size=     512KiB time=00:00:22.16 bitrate= 189.3kbits/s speed=0.962x elapsed=0:00:23.03    frame=  569 fps= 24 q=28.0 size=     512KiB time=00:00:22.68 bitrate= 184.9kbits/s speed=0.964x elapsed=0:00:23.53    frame=  581 fps= 24 q=28.0 size=     512KiB time=00:00:23.16 bitrate= 181.1kbits/s speed=0.964x elapsed=0:00:24.03    frame=  594 fps= 24 q=28.0 size=     512KiB time=00:00:23.68 bitrate= 177.1kbits/s speed=0.965x elapsed=0:00:24.53    frame=  607 fps= 24 q=28.0 size=     512KiB time=00:00:24.20 bitrate= 173.3kbits/s speed=0.967x elapsed=0:00:25.03    frame=  617 fps= 24 q=28.0 size=     512KiB time=00:00:24.60 bitrate= 170.5kbits/s speed=0.963x elapsed=0:00:25.53    frame=  632 fps= 24 q=28.0 size=     768KiB time=00:00:25.20 bitrate= 249.7kbits/s speed=0.968x elapsed=0:00:26.03    frame=  644 fps= 24 q=28.0 size=     768KiB time=00:00:25.68 bitrate= 245.0kbits/s speed=0.968x elapsed=0:00:26.53    frame=  656 fps= 24 q=28.0 size=     768KiB time=00:00:26.16 bitrate= 240.5kbits/s speed=0.968x elapsed=0:00:27.03    frame=  669 fps= 24 q=28.0 size=     768KiB time=00:00:26.68 bitrate= 235.8kbits/s speed=0.969x elapsed=0:00:27.53    frame=  681 fps= 24 q=28.0 size=     768KiB time=00:00:27.16 bitrate= 231.6kbits/s speed=0.969x elapsed=0:00:28.03    frame=  694 fps= 24 q=28.0 size=     768KiB time=00:00:27.68 bitrate= 227.3kbits/s speed=0.97x elapsed=0:00:28.53    frame=  706 fps= 24 q=28.0 size=     768KiB time=00:00:28.16 bitrate= 223.4kbits/s speed=0.97x elapsed=0:00:29.03    frame=  719 fps= 24 q=28.0 size=     768KiB time=00:00:28.68 bitrate= 219.4kbits/s speed=0.971x elapsed=0:00:29.53    frame=  732 fps= 24 q=28.0 size=     768KiB time=00:00:29.20 bitrate= 215.5kbits/s speed=0.972x elapsed=0:00:30.03    frame=  744 fps= 24 q=28.0 size=     768KiB time=00:00:29.68 bitrate= 212.0kbits/s speed=0.972x elapsed=0:00:30.53    frame=  757 fps= 24 q=28.0 size=     768KiB time=00:00:30.20 bitrate= 208.3kbits/s speed=0.973x elapsed=0:00:31.03    frame=  769 fps= 24 q=28.0 size=     768KiB time=00:00:30.68 bitrate= 205.1kbits/s speed=0.973x elapsed=0:00:31.53    frame=  782 fps= 24 q=28.0 size=     768KiB time=00:00:31.20 bitrate= 201.6kbits/s speed=0.974x elapsed=0:00:32.03    frame=  794 fps= 24 q=28.0 size=     768KiB time=00:00:31.68 bitrate= 198.6kbits/s speed=0.974x elapsed=0:00:32.53    frame=  807 fps= 24 q=28.0 size=     768KiB time=00:00:32.20 bitrate= 195.4kbits/s speed=0.975x elapsed=0:00:33.04    frame=  819 fps= 24 q=28.0 size=     768KiB time=00:00:32.68 bitrate= 192.5kbits/s speed=0.974x elapsed=0:00:33.54    frame=  832 fps= 24 q=28.0 size=     768KiB time=00:00:33.20 bitrate= 189.5kbits/s speed=0.975x elapsed=0:00:34.04    frame=  844 fps= 24 q=28.0 size=     768KiB time=00:00:33.68 bitrate= 186.8kbits/s speed=0.975x elapsed=0:00:34.54    frame=  857 fps= 24 q=28.0 size=     768KiB time=00:00:34.20 bitrate= 184.0kbits/s speed=0.976x elapsed=0:00:35.04    frame=  870 fps= 24 q=28.0 size=     768KiB time=00:00:34.72 bitrate= 181.2kbits/s speed=0.977x elapsed=0:00:35.54    frame=  882 fps= 24 q=28.0 size=    1024KiB time=00:00:35.20 bitrate= 238.3kbits/s speed=0.976x elapsed=0:00:36.04    frame=  894 fps= 24 q=28.0 size=    1024KiB time=00:00:35.68 bitrate= 235.1kbits/s speed=0.976x elapsed=0:00:36.54    frame=  907 fps= 24 q=28.0 size=    1024KiB time=00:00:36.20 bitrate= 231.7kbits/s speed=0.977x elapsed=0:00:37.04    frame=  920 fps= 25 q=28.0 size=    1024KiB time=00:00:36.72 bitrate= 228.4kbits/s speed=0.978x elapsed=0:00:37.55    frame=  932 fps= 24 q=28.0 size=    1024KiB time=00:00:37.20 bitrate= 225.5kbits/s speed=0.978x elapsed=0:00:38.05    frame=  944 fps= 24 q=28.0 size=    1024KiB time=00:00:37.68 bitrate= 222.6kbits/s speed=0.977x elapsed=0:00:38.55    frame=  957 fps= 25 q=28.0 size=    1024KiB time=00:00:38.20 bitrate= 219.6kbits/s speed=0.978x elapsed=0:00:39.05    frame=  969 fps= 24 q=28.0 size=    1024KiB time=00:00:38.72 bitrate= 216.6kbits/s speed=0.979x elapsed=0:00:39.55    frame=  982 fps= 25 q=28.0 size=    1024KiB time=00:00:39.20 bitrate= 214.0kbits/s speed=0.979x elapsed=0:00:40.05    frame=  994 fps= 25 q=28.0 size=    1024KiB time=00:00:39.68 bitrate= 211.4kbits/s speed=0.978x elapsed=0:00:40.55    frame= 1007 fps= 25 q=28.0 size=    1024KiB time=00:00:40.20 bitrate= 208.7kbits/s speed=0.979x elapsed=0:00:41.05    frame= 1019 fps= 25 q=28.0 size=    1024KiB time=00:00:40.68 bitrate= 206.2kbits/s speed=0.979x elapsed=0:00:41.55    frame= 1032 fps= 25 q=28.0 size=    1024KiB time=00:00:41.20 bitrate= 203.6kbits/s speed=0.98x elapsed=0:00:42.05    frame= 1045 fps= 25 q=28.0 size=    1024KiB time=00:00:41.72 bitrate= 201.1kbits/s speed=0.98x elapsed=0:00:42.55    frame= 1057 fps= 25 q=28.0 size=    1024KiB time=00:00:42.20 bitrate= 198.8kbits/s speed=0.98x elapsed=0:00:43.05    frame= 1070 fps= 25 q=28.0 size=    1024KiB time=00:00:42.72 bitrate= 196.4kbits/s speed=0.981x elapsed=0:00:43.55    frame= 1082 fps= 25 q=28.0 size=    1024KiB time=00:00:43.20 bitrate= 194.2kbits/s speed=0.98x elapsed=0:00:44.06    frame= 1095 fps= 25 q=28.0 size=    1024KiB time=00:00:43.72 bitrate= 191.9kbits/s speed=0.981x elapsed=0:00:44.56    frame= 1107 fps= 25 q=28.0 size=    1024KiB time=00:00:44.20 bitrate= 189.8kbits/s speed=0.981x elapsed=0:00:45.06    frame= 1120 fps= 25 q=28.0 size=    1024KiB time=00:00:44.72 bitrate= 187.6kbits/s speed=0.982x elapsed=0:00:45.56    frame= 1132 fps= 25 q=28.0 size=    1280KiB time=00:00:45.20 bitrate= 232.0kbits/s speed=0.981x elapsed=0:00:46.06    frame= 1145 fps= 25 q=28.0 size=    1280KiB time=00:00:45.72 bitrate= 229.3kbits/s speed=0.982x elapsed=0:00:46.56    frame= 1157 fps= 25 q=28.0 size=    1280KiB time=00:00:46.20 bitrate= 227.0kbits/s speed=0.982x elapsed=0:00:47.06    frame= 1170 fps= 25 q=28.0 size=    1280KiB time=00:00:46.72 bitrate= 224.4kbits/s speed=0.982x elapsed=0:00:47.56    frame= 1182 fps= 25 q=28.0 size=    1280KiB time=00:00:47.20 bitrate= 222.2kbits/s speed=0.982x elapsed=0:00:48.06    frame= 1195 fps= 25 q=28.0 size=    1280KiB time=00:00:47.72 bitrate= 219.7kbits/s speed=0.983x elapsed=0:00:48.56    frame= 1207 fps= 25 q=28.0 size=    1280KiB time=00:00:48.20 bitrate= 217.5kbits/s speed=0.982x elapsed=0:00:49.06    frame= 1220 fps= 25 q=28.0 size=    1280KiB time=00:00:48.72 bitrate= 215.2kbits/s speed=0.983x elapsed=0:00:49.56    frame= 1232 fps= 25 q=28.0 size=    1280KiB time=00:00:49.20 bitrate= 213.1kbits/s speed=0.983x elapsed=0:00:50.06    frame= 1245 fps= 25 q=28.0 size=    1280KiB time=00:00:49.72 bitrate= 210.9kbits/s speed=0.983x elapsed=0:00:50.56    frame= 1257 fps= 25 q=28.0 size=    1536KiB time=00:00:50.20 bitrate= 250.7kbits/s speed=0.983x elapsed=0:00:51.06    frame= 1270 fps= 25 q=28.0 size=    1536KiB time=00:00:50.72 bitrate= 248.1kbits/s speed=0.983x elapsed=0:00:51.57    frame= 1283 fps= 25 q=28.0 size=    1536KiB time=00:00:51.24 bitrate= 245.6kbits/s speed=0.984x elapsed=0:00:52.07    frame= 1295 fps= 25 q=28.0 size=    1536KiB time=00:00:51.72 bitrate= 243.3kbits/s speed=0.984x elapsed=0:00:52.57    frame= 1308 fps= 25 q=28.0 size=    1536KiB time=00:00:52.24 bitrate= 240.9kbits/s speed=0.984x elapsed=0:00:53.07    frame= 1320 fps= 25 q=28.0 size=    1536KiB time=00:00:52.72 bitrate= 238.7kbits/s speed=0.984x elapsed=0:00:53.58    frame= 1333 fps= 25 q=28.0 size=    1536KiB time=00:00:53.24 bitrate= 236.3kbits/s speed=0.984x elapsed=0:00:54.08    frame= 1345 fps= 25 q=28.0 size=    1536KiB time=00:00:53.72 bitrate= 234.2kbits/s speed=0.984x elapsed=0:00:54.58    frame= 1358 fps= 25 q=28.0 size=    1536KiB time=00:00:54.24 bitrate= 232.0kbits/s speed=0.985x elapsed=0:00:55.08    frame= 1370 fps= 25 q=28.0 size=    1536KiB time=00:00:54.76 bitrate= 229.8kbits/s speed=0.985x elapsed=0:00:55.58    frame= 1383 fps= 25 q=28.0 size=    1536KiB time=00:00:55.24 bitrate= 227.8kbits/s speed=0.985x elapsed=0:00:56.08    frame= 1395 fps= 25 q=28.0 size=    1536KiB time=00:00:55.72 bitrate= 225.8kbits/s speed=0.985x elapsed=0:00:56.58    frame= 1408 fps= 25 q=28.0 size=    1536KiB time=00:00:56.24 bitrate= 223.7kbits/s speed=0.985x elapsed=0:00:57.08    frame= 1421 fps= 25 q=28.0 size=    1536KiB time=00:00:56.76 bitrate= 221.7kbits/s speed=0.986x elapsed=0:00:57.59    frame= 1433 fps= 25 q=28.0 size=    1536KiB time=00:00:57.24 bitrate= 219.8kbits/s speed=0.985x elapsed=0:00:58.09    frame= 1446 fps= 25 q=28.0 size=    1536KiB time=00:00:57.76 bitrate= 217.8kbits/s speed=0.986x elapsed=0:00:58.59    frame= 1458 fps= 25 q=28.0 size=    1536KiB time=00:00:58.24 bitrate= 216.1kbits/s speed=0.986x elapsed=0:00:59.09    frame= 1470 fps= 25 q=28.0 size=    1536KiB time=00:00:58.72 bitrate= 214.3kbits/s speed=0.985x elapsed=0:00:59.59    frame= 1483 fps= 25 q=28.0 size=    1536KiB time=00:00:59.24 bitrate= 212.4kbits/s speed=0.986x elapsed=0:01:00.09    frame= 1496 fps= 25 q=25.0 size=    1536KiB time=00:00:59.76 bitrate= 210.6kbits/s speed=0.986x elapsed=0:01:00.59    frame= 1508 fps= 25 q=28.0 size=    1792KiB time=00:01:00.24 bitrate= 243.7kbits/s speed=0.986x elapsed=0:01:01.09    frame= 1520 fps= 25 q=28.0 size=    1792KiB time=00:01:00.72 bitrate= 241.8kbits/s speed=0.986x elapsed=0:01:01.59    frame= 1533 fps= 25 q=28.0 size=    1792KiB time=00:01:01.24 bitrate= 239.7kbits/s speed=0.986x elapsed=0:01:02.09    frame= 1546 fps= 25 q=28.0 size=    1792KiB time=00:01:01.76 bitrate= 237.7kbits/s speed=0.987x elapsed=0:01:02.59    frame= 1558 fps= 25 q=28.0 size=    1792KiB time=00:01:02.24 bitrate= 235.9kbits/s speed=0.986x elapsed=0:01:03.09    frame= 1571 fps= 25 q=28.0 size=    1792KiB time=00:01:02.76 bitrate= 233.9kbits/s speed=0.987x elapsed=0:01:03.59    frame= 1583 fps= 25 q=28.0 size=    1792KiB time=00:01:03.24 bitrate= 232.1kbits/s speed=0.987x elapsed=0:01:04.09    frame= 1596 fps= 25 q=28.0 size=    1792KiB time=00:01:03.76 bitrate= 230.2kbits/s speed=0.987x elapsed=0:01:04.59    frame= 1608 fps= 25 q=28.0 size=    1792KiB time=00:01:04.24 bitrate= 228.5kbits/s speed=0.987x elapsed=0:01:05.09    frame= 1621 fps= 25 q=28.0 size=    1792KiB time=00:01:04.76 bitrate= 226.7kbits/s speed=0.987x elapsed=0:01:05.60    frame= 1633 fps= 25 q=28.0 size=    2048KiB time=00:01:05.24 bitrate= 257.2kbits/s speed=0.987x elapsed=0:01:06.10    frame= 1646 fps= 25 q=28.0 size=    2048KiB time=00:01:05.76 bitrate= 255.1kbits/s speed=0.987x elapsed=0:01:06.60    frame= 1658 fps= 25 q=28.0 size=    2048KiB time=00:01:06.24 bitrate= 253.3kbits/s speed=0.987x elapsed=0:01:07.10    frame= 1671 fps= 25 q=28.0 size=    2048KiB time=00:01:06.76 bitrate= 251.3kbits/s speed=0.988x elapsed=0:01:07.60    frame= 1683 fps= 25 q=28.0 size=    2048KiB time=00:01:07.24 bitrate= 249.5kbits/s speed=0.987x elapsed=0:01:08.10    frame= 1696 fps= 25 q=28.0 size=    2048KiB time=00:01:07.76 bitrate= 247.6kbits/s speed=0.988x elapsed=0:01:08.60    frame= 1708 fps= 25 q=28.0 size=    2048KiB time=00:01:08.24 bitrate= 245.9kbits/s speed=0.987x elapsed=0:01:09.10    frame= 1721 fps= 25 q=28.0 size=    2048KiB time=00:01:08.76 bitrate= 244.0kbits/s speed=0.988x elapsed=0:01:09.60    frame= 1733 fps= 25 q=28.0 size=    2048KiB time=00:01:09.24 bitrate= 242.3kbits/s speed=0.988x elapsed=0:01:10.10    frame= 1746 fps= 25 q=25.0 size=    2048KiB time=00:01:09.76 bitrate= 240.5kbits/s speed=0.988x elapsed=0:01:10.60    frame= 1758 fps= 25 q=28.0 size=    2048KiB time=00:01:10.24 bitrate= 238.9kbits/s speed=0.988x elapsed=0:01:11.10    frame= 1771 fps= 25 q=28.0 size=    2048KiB time=00:01:10.76 bitrate= 237.1kbits/s speed=0.988x elapsed=0:01:11.60    frame= 1784 fps= 25 q=28.0 size=    2048KiB time=00:01:11.28 bitrate= 235.4kbits/s speed=0.989x elapsed=0:01:12.10    frame= 1796 fps= 25 q=28.0 size=    2048KiB time=00:01:11.76 bitrate= 233.8kbits/s speed=0.988x elapsed=0:01:12.60    frame= 1808 fps= 25 q=28.0 size=    2048KiB time=00:01:12.24 bitrate= 232.2kbits/s speed=0.988x elapsed=0:01:13.10    frame= 1821 fps= 25 q=28.0 size=    2048KiB time=00:01:12.76 bitrate= 230.6kbits/s speed=0.988x elapsed=0:01:13.60    frame= 1834 fps= 25 q=28.0 size=    2048KiB time=00:01:13.28 bitrate= 228.9kbits/s speed=0.989x elapsed=0:01:14.11    frame= 1846 fps= 25 q=28.0 size=    2048KiB time=00:01:13.76 bitrate= 227.5kbits/s speed=0.989x elapsed=0:01:14.61    frame= 1858 fps= 25 q=28.0 size=    2048KiB time=00:01:14.24 bitrate= 226.0kbits/s speed=0.988x elapsed=0:01:15.11    frame= 1871 fps= 25 q=28.0 size=    2048KiB time=00:01:14.76 bitrate= 224.4kbits/s speed=0.989x elapsed=0:01:15.61    frame= 1884 fps= 25 q=28.0 size=    2304KiB time=00:01:15.28 bitrate= 250.7kbits/s speed=0.989x elapsed=0:01:16.11    frame= 1896 fps= 25 q=28.0 size=    2304KiB time=00:01:15.76 bitrate= 249.1kbits/s speed=0.989x elapsed=0:01:16.61    frame= 1909 fps= 25 q=28.0 size=    2304KiB time=00:01:16.28 bitrate= 247.4kbits/s speed=0.989x elapsed=0:01:17.11    frame= 1921 fps= 25 q=28.0 size=    2304KiB time=00:01:16.76 bitrate= 245.9kbits/s speed=0.989x elapsed=0:01:17.61    frame= 1934 fps= 25 q=28.0 size=    2304KiB time=00:01:17.28 bitrate= 244.2kbits/s speed=0.989x elapsed=0:01:18.11    frame= 1946 fps= 25 q=28.0 size=    2304KiB time=00:01:17.76 bitrate= 242.7kbits/s speed=0.989x elapsed=0:01:18.61    frame= 1958 fps= 25 q=28.0 size=    2304KiB time=00:01:18.24 bitrate= 241.2kbits/s speed=0.989x elapsed=0:01:19.11    frame= 1971 fps= 25 q=28.0 size=    2304KiB time=00:01:18.76 bitrate= 239.6kbits/s speed=0.989x elapsed=0:01:19.61    frame= 1984 fps= 25 q=28.0 size=    2304KiB time=00:01:19.28 bitrate= 238.1kbits/s speed=0.99x elapsed=0:01:20.11    frame= 1996 fps= 25 q=25.0 size=    2304KiB time=00:01:19.76 bitrate= 236.6kbits/s speed=0.989x elapsed=0:01:20.61    frame= 2008 fps= 25 q=28.0 size=    2560KiB time=00:01:20.24 bitrate= 261.4kbits/s speed=0.989x elapsed=0:01:21.11    frame= 2021 fps= 25 q=28.0 size=    2560KiB time=00:01:20.76 bitrate= 259.7kbits/s speed=0.989x elapsed=0:01:21.61    frame= 2034 fps= 25 q=28.0 size=    2560KiB time=00:01:21.28 bitrate= 258.0kbits/s speed=0.99x elapsed=0:01:22.11    frame= 2046 fps= 25 q=28.0 size=    2560KiB time=00:01:21.76 bitrate= 256.5kbits/s speed=0.99x elapsed=0:01:22.61    frame= 2059 fps= 25 q=28.0 size=    2560KiB time=00:01:22.28 bitrate= 254.9kbits/s speed=0.99x elapsed=0:01:23.11    frame= 2071 fps= 25 q=28.0 size=    2560KiB time=00:01:22.76 bitrate= 253.4kbits/s speed=0.99x elapsed=0:01:23.62    frame= 2084 fps= 25 q=28.0 size=    2560KiB time=00:01:23.28 bitrate= 251.8kbits/s speed=0.99x elapsed=0:01:24.12    frame= 2096 fps= 25 q=28.0 size=    2560KiB time=00:01:23.76 bitrate= 250.4kbits/s speed=0.99x elapsed=0:01:24.62    frame= 2109 fps= 25 q=28.0 size=    2560KiB time=00:01:24.28 bitrate= 248.8kbits/s speed=0.99x elapsed=0:01:25.12    frame= 2121 fps= 25 q=28.0 size=    2560KiB time=00:01:24.76 bitrate= 247.4kbits/s speed=0.99x elapsed=0:01:25.62    frame= 2134 fps= 25 q=28.0 size=    2560KiB time=00:01:25.28 bitrate= 245.9kbits/s speed=0.99x elapsed=0:01:26.12    frame= 2146 fps= 25 q=28.0 size=    2560KiB time=00:01:25.76 bitrate= 244.5kbits/s speed=0.99x elapsed=0:01:26.62    frame= 2159 fps= 25 q=28.0 size=    2560KiB time=00:01:26.28 bitrate= 243.1kbits/s speed=0.99x elapsed=0:01:27.12    frame= 2172 fps= 25 q=28.0 size=    2560KiB time=00:01:26.80 bitrate= 241.6kbits/s speed=0.991x elapsed=0:01:27.63    frame= 2184 fps= 25 q=28.0 size=    2560KiB time=00:01:27.28 bitrate= 240.3kbits/s speed=0.99x elapsed=0:01:28.13    frame= 2197 fps= 25 q=28.0 size=    2560KiB time=00:01:27.80 bitrate= 238.9kbits/s speed=0.991x elapsed=0:01:28.64    frame= 2209 fps= 25 q=28.0 size=    2560KiB time=00:01:28.28 bitrate= 237.6kbits/s speed=0.99x elapsed=0:01:29.14    frame= 2222 fps= 25 q=28.0 size=    2560KiB time=00:01:28.80 bitrate= 236.2kbits/s speed=0.991x elapsed=0:01:29.64    frame= 2234 fps= 25 q=28.0 size=    2560KiB time=00:01:29.28 bitrate= 234.9kbits/s speed=0.99x elapsed=0:01:30.14    frame= 2247 fps= 25 q=28.0 size=    2560KiB time=00:01:29.80 bitrate= 233.5kbits/s speed=0.991x elapsed=0:01:30.64    frame= 2259 fps= 25 q=28.0 size=    2816KiB time=00:01:30.28 bitrate= 255.5kbits/s speed=0.991x elapsed=0:01:31.14    frame= 2272 fps= 25 q=28.0 size=    2816KiB time=00:01:30.80 bitrate= 254.1kbits/s speed=0.991x elapsed=0:01:31.64    frame= 2284 fps= 25 q=28.0 size=    2816KiB time=00:01:31.28 bitrate= 252.7kbits/s speed=0.991x elapsed=0:01:32.14    frame= 2296 fps= 25 q=28.0 size=    2816KiB time=00:01:31.76 bitrate= 251.4kbits/s speed=0.99x elapsed=0:01:32.64    frame= 2309 fps= 25 q=28.0 size=    2816KiB time=00:01:32.28 bitrate= 250.0kbits/s speed=0.991x elapsed=0:01:33.14    frame= 2322 fps= 25 q=28.0 size=    2816KiB time=00:01:32.80 bitrate= 248.6kbits/s speed=0.991x elapsed=0:01:33.64    frame= 2334 fps= 25 q=28.0 size=    2816KiB time=00:01:33.28 bitrate= 247.3kbits/s speed=0.991x elapsed=0:01:34.14    frame= 2347 fps= 25 q=28.0 size=    2816KiB time=00:01:33.80 bitrate= 245.9kbits/s speed=0.991x elapsed=0:01:34.64    frame= 2359 fps= 25 q=28.0 size=    2816KiB time=00:01:34.28 bitrate= 244.7kbits/s speed=0.991x elapsed=0:01:35.14    frame= 2372 fps= 25 q=28.0 size=    2816KiB time=00:01:34.80 bitrate= 243.3kbits/s speed=0.991x elapsed=0:01:35.64    frame= 2384 fps= 25 q=28.0 size=    3072KiB time=00:01:35.28 bitrate= 264.1kbits/s speed=0.991x elapsed=0:01:36.14    frame= 2397 fps= 25 q=28.0 size=    3072KiB time=00:01:35.80 bitrate= 262.7kbits/s speed=0.991x elapsed=0:01:36.64    frame= 2408 fps= 25 q=28.0 size=    3072KiB time=00:01:36.24 bitrate= 261.5kbits/s speed=0.991x elapsed=0:01:37.14    frame= 2422 fps= 25 q=28.0 size=    3072KiB time=00:01:36.80 bitrate= 260.0kbits/s speed=0.991x elapsed=0:01:37.64    frame= 2434 fps= 25 q=28.0 size=    3072KiB time=00:01:37.28 bitrate= 258.7kbits/s speed=0.991x elapsed=0:01:38.14    frame= 2447 fps= 25 q=28.0 size=    3072KiB time=00:01:37.80 bitrate= 257.3kbits/s speed=0.991x elapsed=0:01:38.65    frame= 2460 fps= 25 q=28.0 size=    3072KiB time=00:01:38.32 bitrate= 256.0kbits/s speed=0.992x elapsed=0:01:39.15    frame= 2472 fps= 25 q=28.0 size=    3072KiB time=00:01:38.80 bitrate= 254.7kbits/s speed=0.991x elapsed=0:01:39.65    frame= 2485 fps= 25 q=28.0 size=    3072KiB time=00:01:39.32 bitrate= 253.4kbits/s speed=0.992x elapsed=0:01:40.15    frame= 2497 fps= 25 q=28.0 size=    3072KiB time=00:01:39.80 bitrate= 252.2kbits/s speed=0.992x elapsed=0:01:40.65    frame= 2509 fps= 25 q=28.0 size=    3072KiB time=00:01:40.28 bitrate= 251.0kbits/s speed=0.991x elapsed=0:01:41.15    frame= 2522 fps= 25 q=28.0 size=    3072KiB time=00:01:40.80 bitrate= 249.7kbits/s speed=0.992x elapsed=0:01:41.65    frame= 2535 fps= 25 q=28.0 size=    3072KiB time=00:01:41.32 bitrate= 248.4kbits/s speed=0.992x elapsed=0:01:42.15    frame= 2547 fps= 25 q=28.0 size=    3072KiB time=00:01:41.80 bitrate= 247.2kbits/s speed=0.992x elapsed=0:01:42.65    frame= 2560 fps= 25 q=28.0 size=    3072KiB time=00:01:42.32 bitrate= 246.0kbits/s speed=0.992x elapsed=0:01:43.15    frame= 2572 fps= 25 q=28.0 size=    3072KiB time=00:01:42.80 bitrate= 244.8kbits/s speed=0.992x elapsed=0:01:43.66    frame= 2585 fps= 25 q=28.0 size=    3072KiB time=00:01:43.32 bitrate= 243.6kbits/s speed=0.992x elapsed=0:01:44.16    frame= 2597 fps= 25 q=28.0 size=    3072KiB time=00:01:43.80 bitrate= 242.4kbits/s speed=0.992x elapsed=0:01:44.66    frame= 2610 fps= 25 q=28.0 size=    3072KiB time=00:01:44.32 bitrate= 241.2kbits/s speed=0.992x elapsed=0:01:45.16    frame= 2622 fps= 25 q=28.0 size=    3072KiB time=00:01:44.80 bitrate= 240.1kbits/s speed=0.992x elapsed=0:01:45.66    frame= 2634 fps= 25 q=28.0 size=    3328KiB time=00:01:45.28 bitrate= 259.0kbits/s speed=0.992x elapsed=0:01:46.16    frame= 2647 fps= 25 q=28.0 size=    3328KiB time=00:01:45.80 bitrate= 257.7kbits/s speed=0.992x elapsed=0:01:46.66    frame= 2660 fps= 25 q=28.0 size=    3328KiB time=00:01:46.32 bitrate= 256.4kbits/s speed=0.992x elapsed=0:01:47.16    frame= 2672 fps= 25 q=28.0 size=    3328KiB time=00:01:46.80 bitrate= 255.3kbits/s speed=0.992x elapsed=0:01:47.66    frame= 2685 fps= 25 q=28.0 size=    3328KiB time=00:01:47.32 bitrate= 254.0kbits/s speed=0.992x elapsed=0:01:48.16    frame= 2697 fps= 25 q=28.0 size=    3328KiB time=00:01:47.80 bitrate= 252.9kbits/s speed=0.992x elapsed=0:01:48.66    frame= 2710 fps= 25 q=28.0 size=    3328KiB time=00:01:48.32 bitrate= 251.7kbits/s speed=0.992x elapsed=0:01:49.16    frame= 2722 fps= 25 q=28.0 size=    3328KiB time=00:01:48.80 bitrate= 250.6kbits/s speed=0.992x elapsed=0:01:49.66    frame= 2735 fps= 25 q=28.0 size=    3328KiB time=00:01:49.32 bitrate= 249.4kbits/s speed=0.992x elapsed=0:01:50.16    frame= 2747 fps= 25 q=28.0 size=    3328KiB time=00:01:49.80 bitrate= 248.3kbits/s speed=0.992x elapsed=0:01:50.66    frame= 2760 fps= 25 q=28.0 size=    3328KiB time=00:01:50.32 bitrate= 247.1kbits/s speed=0.992x elapsed=0:01:51.16    frame= 2772 fps= 25 q=28.0 size=    3328KiB time=00:01:50.80 bitrate= 246.1kbits/s speed=0.992x elapsed=0:01:51.66    frame= 2785 fps= 25 q=28.0 size=    3328KiB time=00:01:51.32 bitrate= 244.9kbits/s speed=0.992x elapsed=0:01:52.16    frame= 2797 fps= 25 q=28.0 size=    3328KiB time=00:01:51.84 bitrate= 243.8kbits/s speed=0.993x elapsed=0:01:52.66    frame= 2810 fps= 25 q=28.0 size=    3328KiB time=00:01:52.32 bitrate= 242.7kbits/s speed=0.993x elapsed=0:01:53.16    frame= 2822 fps= 25 q=28.0 size=    3328KiB time=00:01:52.80 bitrate= 241.7kbits/s speed=0.992x elapsed=0:01:53.66    frame= 2835 fps= 25 q=28.0 size=    3328KiB time=00:01:53.32 bitrate= 240.6kbits/s speed=0.993x elapsed=0:01:54.16    frame= 2847 fps= 25 q=28.0 size=    3328KiB time=00:01:53.80 bitrate= 239.6kbits/s speed=0.992x elapsed=0:01:54.67    frame= 2860 fps= 25 q=28.0 size=    3328KiB time=00:01:54.32 bitrate= 238.5kbits/s speed=0.993x elapsed=0:01:55.17    frame= 2873 fps= 25 q=28.0 size=    3328KiB time=00:01:54.84 bitrate= 237.4kbits/s speed=0.993x elapsed=0:01:55.67    frame= 2885 fps= 25 q=28.0 size=    3584KiB time=00:01:55.32 bitrate= 254.6kbits/s speed=0.993x elapsed=0:01:56.17    frame= 2898 fps= 25 q=28.0 size=    3584KiB time=00:01:55.84 bitrate= 253.5kbits/s speed=0.993x elapsed=0:01:56.67    frame= 2910 fps= 25 q=28.0 size=    3584KiB time=00:01:56.32 bitrate= 252.4kbits/s speed=0.993x elapsed=0:01:57.17    frame= 2923 fps= 25 q=28.0 size=    3584KiB time=00:01:56.84 bitrate= 251.3kbits/s speed=0.993x elapsed=0:01:57.67    frame= 2935 fps= 25 q=28.0 size=    3584KiB time=00:01:57.32 bitrate= 250.3kbits/s speed=0.993x elapsed=0:01:58.17    frame= 2948 fps= 25 q=28.0 size=    3584KiB time=00:01:57.84 bitrate= 249.2kbits/s speed=0.993x elapsed=0:01:58.67    frame= 2960 fps= 25 q=28.0 size=    3584KiB time=00:01:58.32 bitrate= 248.1kbits/s speed=0.993x elapsed=0:01:59.17    frame= 2973 fps= 25 q=28.0 size=    3584KiB time=00:01:58.84 bitrate= 247.1kbits/s speed=0.993x elapsed=0:01:59.67    frame= 2985 fps= 25 q=28.0 size=    3584KiB time=00:01:59.32 bitrate= 246.1kbits/s speed=0.993x elapsed=0:02:00.17    frame= 2998 fps= 25 q=28.0 size=    3584KiB time=00:01:59.84 bitrate= 245.0kbits/s speed=0.993x elapsed=0:02:00.67    frame= 3010 fps= 25 q=28.0 size=    3584KiB time=00:02:00.32 bitrate= 244.0kbits/s speed=0.993x elapsed=0:02:01.17    frame= 3023 fps= 25 q=28.0 size=    3584KiB time=00:02:00.84 bitrate= 243.0kbits/s speed=0.993x elapsed=0:02:01.67    frame= 3035 fps= 25 q=28.0 size=    3584KiB time=00:02:01.32 bitrate= 242.0kbits/s speed=0.993x elapsed=0:02:02.17    frame= 3048 fps= 25 q=28.0 size=    3584KiB time=00:02:01.84 bitrate= 241.0kbits/s speed=0.993x elapsed=0:02:02.67    frame= 3060 fps= 25 q=28.0 size=    3584KiB time=00:02:02.32 bitrate= 240.0kbits/s speed=0.993x elapsed=0:02:03.17    frame= 3073 fps= 25 q=28.0 size=    3584KiB time=00:02:02.84 bitrate= 239.0kbits/s speed=0.993x elapsed=0:02:03.67    frame= 3085 fps= 25 q=28.0 size=    3584KiB time=00:02:03.32 bitrate= 238.1kbits/s speed=0.993x elapsed=0:02:04.18    frame= 3098 fps= 25 q=28.0 size=    3584KiB time=00:02:03.84 bitrate= 237.1kbits/s speed=0.993x elapsed=0:02:04.68    frame= 3110 fps= 25 q=28.0 size=    3584KiB time=00:02:04.32 bitrate= 236.2kbits/s speed=0.993x elapsed=0:02:05.18    frame= 3123 fps= 25 q=28.0 size=    3584KiB time=00:02:04.84 bitrate= 235.2kbits/s speed=0.993x elapsed=0:02:05.68    [out#0/matroska @ 0x558d76e1b500] video:3962KiB audio:0KiB subtitle:0KiB other streams:0KiB global headers:0KiB muxing overhead: 0.577159%
frame= 3156 fps= 25 q=-1.0 Lsize=    3985KiB time=00:02:06.16 bitrate= 258.7kbits/s speed=0.999x elapsed=0:02:06.34    
[libx264 @ 0x558d76e1cf00] frame I:13    Avg QP:11.68  size:118243
[libx264 @ 0x558d76e1cf00] frame P:796   Avg QP:17.55  size:  1726
[libx264 @ 0x558d76e1cf00] frame B:2347  Avg QP:24.77  size:   488
[libx264 @ 0x558d76e1cf00] consecutive B-frames:  0.8%  0.2%  0.2% 98.9%
[libx264 @ 0x558d76e1cf00] mb I  I16..4: 88.9%  1.8%  9.3%
[libx264 @ 0x558d76e1cf00] mb P  I16..4:  0.2%  0.0%  0.0%  P16..4:  0.3%  0.2%  0.1%  0.0%  0.0%    skip:99.1%
[libx264 @ 0x558d76e1cf00] mb B  I16..4:  0.0%  0.0%  0.0%  B16..8:  0.2%  0.1%  0.0%  direct: 0.0%  skip:99.6%  L0:46.2% L1:46.7% BI: 7.0%
[libx264 @ 0x558d76e1cf00] 8x8 transform intra:4.0% inter:2.0%
[libx264 @ 0x558d76e1cf00] coded y,uvDC,uvAC intra: 14.4% 21.4% 17.6% inter: 0.1% 0.1% 0.1%
[libx264 @ 0x558d76e1cf00] i16 v,h,dc,p: 69% 29%  2%  0%
[libx264 @ 0x558d76e1cf00] i8 v,h,dc,ddl,ddr,vr,hd,vl,hu: 15% 19% 60%  1%  1%  3%  0%  1%  1%
[libx264 @ 0x558d76e1cf00] i4 v,h,dc,ddl,ddr,vr,hd,vl,hu: 32% 28% 22%  2%  2%  5%  2%  4%  2%
[libx264 @ 0x558d76e1cf00] i8c dc,h,v,p: 61% 30%  9%  0%
[libx264 @ 0x558d76e1cf00] Weighted P-Frames: Y:0.0% UV:0.0%
[libx264 @ 0x558d76e1cf00] kb/s:257.05
Exiting normally, received signal 2.
